<svg width="22" height="22" viewBox="0 0 22 22" fill="none" xmlns="http://www.w3.org/2000/svg">
<path d="M7.563 14.438L3.437 18.562M11 16.5C12.4587 16.5 13.8576 15.9205 14.8891 14.8891C15.9205 13.8576 16.5 12.4587 16.5 11C16.5 9.54131 15.9205 8.14236 14.8891 7.11091C13.8576 6.07946 12.4587 5.5 11 5.5C9.54131 5.5 8.14236 6.07946 7.11091 7.11091C6.07946 8.14236 5.5 9.54131 5.5 11C5.5 12.4587 6.07946 13.8576 7.11091 14.8891C8.14236 15.9205 9.54131 16.5 11 16.5V16.5ZM11 5.5V0V5.5ZM11 22V16.5V22ZM0 11H5.5H0ZM16.5 11H22H16.5ZM3.437 3.437L7.562 7.562L3.437 3.437ZM14.438 14.438L18.562 18.562L14.438 14.438ZM18.562 3.437L14.437 7.562L18.562 3.437Z" stroke="#5C6369" stroke-width="2"/>
</svg>
