<svg width="26" height="22" viewBox="0 0 26 22" fill="none" xmlns="http://www.w3.org/2000/svg">
<path d="M17.3335 20.75V18.5833C17.3335 17.4341 16.8769 16.3319 16.0643 15.5192C15.2516 14.7065 14.1494 14.25 13.0002 14.25H5.41683C4.26756 14.25 3.16536 14.7065 2.3527 15.5192C1.54004 16.3319 1.0835 17.4341 1.0835 18.5833V20.75M21.6668 6.66667V13.1667M24.9168 9.91667H18.4168M13.5418 5.58333C13.5418 7.97657 11.6017 9.91667 9.2085 9.91667C6.81526 9.91667 4.87516 7.97657 4.87516 5.58333C4.87516 3.1901 6.81526 1.25 9.2085 1.25C11.6017 1.25 13.5418 3.1901 13.5418 5.58333Z" stroke="#0E0F0F" stroke-width="1.5" stroke-linecap="round" stroke-linejoin="round"/>
</svg>
