<svg width="28" height="28" viewBox="0 0 28 28" fill="none" xmlns="http://www.w3.org/2000/svg">
<g clip-path="url(#clip0)">
<path d="M13.3137 22.6079C13.0782 22.8424 12.7853 23.0109 12.4643 23.0966C12.1432 23.1823 11.8053 23.1821 11.4843 23.0961C11.1633 23.0101 10.8706 22.8413 10.6353 22.6065C10.4001 22.3718 10.2307 22.0794 10.1441 21.7586M20.4164 11.747C20.807 10.2893 20.6025 8.73605 19.8479 7.42906C19.0933 6.12207 17.8504 5.16837 16.3927 4.77777C14.9349 4.38716 13.3817 4.59165 12.0747 5.34624C10.7677 6.10083 9.81402 7.34371 9.42341 8.80147C7.70517 15.214 4.46601 16.3098 4.46601 16.3098L20.9554 20.7281C20.9554 20.7281 18.6981 18.1596 20.4164 11.747Z" stroke="#0E0F0F" stroke-width="1.5" stroke-linecap="round" stroke-linejoin="round"/>
<rect x="6.99951" y="2" width="7" height="7" rx="1" fill="#EC0E0E"/>
</g>
<defs>
<clipPath id="clip0">
<rect width="22.7615" height="22.7615" fill="white" transform="translate(5.89062) rotate(15)"/>
</clipPath>
</defs>
</svg>
