<svg width="22" height="27" viewBox="0 0 22 27" fill="none" xmlns="http://www.w3.org/2000/svg">
<path d="M15.833 3.47235H18.3051C18.9608 3.47235 19.5896 3.73281 20.0532 4.19643C20.5168 4.66005 20.7773 5.28885 20.7773 5.94451V23.2496C20.7773 23.9053 20.5168 24.5341 20.0532 24.9977C19.5896 25.4613 18.9608 25.7218 18.3051 25.7218H3.47216C2.8165 25.7218 2.1877 25.4613 1.72408 24.9977C1.26046 24.5341 1 23.9053 1 23.2496V5.94451C1 5.28885 1.26046 4.66005 1.72408 4.19643C2.1877 3.73281 2.8165 3.47235 3.47216 3.47235H5.94432" stroke="#5C6369" stroke-width="2" stroke-linecap="round" stroke-linejoin="round"/>
<path d="M14.5959 1H7.17944C6.85161 1 6.53721 1.13023 6.3054 1.36204C6.07359 1.59385 5.94336 1.90825 5.94336 2.23608V4.70824C5.94336 5.03607 6.07359 5.35047 6.3054 5.58228C6.53721 5.81409 6.85161 5.94432 7.17944 5.94432H14.5959C14.9237 5.94432 15.2381 5.81409 15.47 5.58228C15.7018 5.35047 15.832 5.03607 15.832 4.70824V2.23608C15.832 1.90825 15.7018 1.59385 15.47 1.36204C15.2381 1.13023 14.9237 1 14.5959 1V1Z" stroke="#5C6369" stroke-width="2" stroke-linecap="round" stroke-linejoin="round"/>
<path d="M10.8887 12.1248H15.833" stroke="#5C6369" stroke-width="2" stroke-linecap="round" stroke-linejoin="round"/>
<path d="M10.8887 18.3052H15.833" stroke="#5C6369" stroke-width="2" stroke-linecap="round" stroke-linejoin="round"/>
<path d="M5.94336 12.1248H5.95689" stroke="#5C6369" stroke-width="2" stroke-linecap="round" stroke-linejoin="round"/>
<path d="M5.94336 18.3052H5.95689" stroke="#5C6369" stroke-width="2" stroke-linecap="round" stroke-linejoin="round"/>
</svg>
