<svg width="23" height="24" viewBox="0 0 23 24" fill="none" xmlns="http://www.w3.org/2000/svg">
<path d="M8.94606 21.6874H1.5491V1.5491H17.0401V8.34965C17.3872 8.38424 17.7172 8.51699 17.9915 8.73235C18.2659 8.94772 18.4732 9.23678 18.5892 9.5657V1.5491C18.5892 1.13825 18.426 0.744234 18.1355 0.453721C17.845 0.163208 17.451 0 17.0401 0H1.5491C1.13825 0 0.744234 0.163208 0.453721 0.453721C0.163208 0.744234 0 1.13825 0 1.5491V21.6874C0 22.0983 0.163208 22.4923 0.453721 22.7828C0.744234 23.0733 1.13825 23.2365 1.5491 23.2365H10.1931L9.41853 22.462C9.19897 22.2472 9.03656 21.9809 8.94606 21.6874Z" fill="#5E656B"/>
<path d="M22.8801 15.8549L21.331 15.3825C21.2212 15.0033 21.0705 14.6371 20.8818 14.2903L21.6564 12.8497C21.6856 12.7947 21.6961 12.7317 21.6863 12.6702C21.6765 12.6087 21.647 12.5521 21.6021 12.5089L20.4558 11.3858C20.4126 11.341 20.356 11.3114 20.2945 11.3016C20.233 11.2918 20.17 11.3024 20.115 11.3316L18.6821 12.1061C18.3322 11.9026 17.9607 11.739 17.5745 11.6181L17.102 10.069C17.0822 10.0113 17.0445 9.96133 16.9943 9.9265C16.9442 9.89167 16.8842 9.87377 16.8232 9.87541H15.2741C15.2134 9.87595 15.1544 9.89574 15.1057 9.93193C15.057 9.96812 15.021 10.0188 15.003 10.0768L14.5305 11.6259C14.1422 11.7412 13.7681 11.8997 13.4151 12.0984L12.0055 11.3238C11.9505 11.2946 11.8875 11.2841 11.826 11.2939C11.7645 11.3037 11.7079 11.3332 11.6647 11.378L10.5261 12.4934C10.4812 12.5366 10.4517 12.5932 10.4419 12.6547C10.4321 12.7162 10.4426 12.7792 10.4718 12.8342L11.2464 14.2439C11.0477 14.5968 10.8893 14.971 10.7739 15.3592L9.22482 15.8317C9.16687 15.8497 9.11615 15.8857 9.07996 15.9344C9.04377 15.9832 9.02397 16.0421 9.02344 16.1028V17.6519C9.02397 17.7126 9.04377 17.7715 9.07996 17.8203C9.11615 17.869 9.16687 17.9049 9.22482 17.923L10.7739 18.3955C10.8909 18.7757 11.0493 19.142 11.2464 19.4876L10.4718 20.9592C10.4426 21.0142 10.4321 21.0772 10.4419 21.1387C10.4517 21.2002 10.4812 21.2568 10.5261 21.3L11.6182 22.4619C11.6614 22.5067 11.718 22.5362 11.7795 22.546C11.841 22.5558 11.904 22.5453 11.959 22.5161L13.4074 21.7415C13.7495 21.9266 14.1105 22.0746 14.484 22.183L14.9565 23.7321C14.9745 23.7901 15.0105 23.8408 15.0592 23.877C15.1079 23.9132 15.1669 23.933 15.2276 23.9335H16.7767C16.8374 23.933 16.8963 23.9132 16.945 23.877C16.9938 23.8408 17.0297 23.7901 17.0478 23.7321L17.5203 22.183C17.8913 22.0744 18.2496 21.9264 18.5891 21.7415L20.053 22.5161C20.108 22.5453 20.171 22.5558 20.2325 22.546C20.294 22.5362 20.3506 22.5067 20.3938 22.4619L21.5169 21.3388C21.5618 21.2955 21.5913 21.2389 21.6011 21.1774C21.6109 21.1159 21.6004 21.0529 21.5712 20.998L20.7966 19.5418C20.9843 19.2 21.1349 18.839 21.2458 18.4652L22.7949 17.9927C22.8529 17.9747 22.9036 17.9387 22.9398 17.89C22.976 17.8412 22.9958 17.7823 22.9963 17.7216V16.1338C23.0048 16.0811 22.9985 16.0271 22.978 15.9778C22.9574 15.9285 22.9236 15.886 22.8801 15.8549ZM16.0331 19.5108C15.522 19.5154 15.0211 19.3681 14.5939 19.0875C14.1667 18.8069 13.8325 18.4057 13.6337 17.9348C13.4349 17.4639 13.3805 16.9446 13.4774 16.4428C13.5743 15.9409 13.8181 15.4792 14.1778 15.1161C14.5376 14.7531 14.9971 14.5051 15.4981 14.4037C15.999 14.3023 16.5188 14.352 16.9915 14.5465C17.4641 14.741 17.8683 15.0716 18.1528 15.4962C18.4372 15.9209 18.5891 16.4205 18.5891 16.9316C18.5892 17.6116 18.3206 18.2642 17.8419 18.7472C17.3632 19.2302 16.7131 19.5047 16.0331 19.5108Z" fill="#5E656B"/>
</svg>
