<svg width="19" height="19" viewBox="0 0 19 19" fill="none" xmlns="http://www.w3.org/2000/svg">
<path d="M1.625 4.24997H3.375M3.375 4.24997H17.375M3.375 4.24997V16.5C3.375 16.9641 3.55937 17.4092 3.88756 17.7374C4.21575 18.0656 4.66087 18.25 5.125 18.25H13.875C14.3391 18.25 14.7842 18.0656 15.1124 17.7374C15.4406 17.4092 15.625 16.9641 15.625 16.5V4.24997H3.375ZM6 4.24997V2.49997C6 2.03584 6.18437 1.59072 6.51256 1.26253C6.84075 0.934344 7.28587 0.749969 7.75 0.749969H11.25C11.7141 0.749969 12.1592 0.934344 12.4874 1.26253C12.8156 1.59072 13 2.03584 13 2.49997V4.24997M7.75 8.62497V13.875M11.25 8.62497V13.875" stroke="#FF7070" stroke-width="1.5" stroke-linecap="round" stroke-linejoin="round"/>
</svg>
