<svg width="20" height="20" viewBox="0 0 20 20" fill="none" xmlns="http://www.w3.org/2000/svg">
<path d="M8.625 3.5H2.5C2.03587 3.5 1.59075 3.68437 1.26256 4.01256C0.934374 4.34075 0.75 4.78587 0.75 5.25V17.5C0.75 17.9641 0.934374 18.4092 1.26256 18.7374C1.59075 19.0656 2.03587 19.25 2.5 19.25H14.75C15.2141 19.25 15.6592 19.0656 15.9874 18.7374C16.3156 18.4092 16.5 17.9641 16.5 17.5V11.375M15.1875 2.1875C15.5356 1.8394 16.0077 1.64384 16.5 1.64384C16.9923 1.64384 17.4644 1.8394 17.8125 2.1875C18.1606 2.5356 18.3562 3.00772 18.3562 3.5C18.3562 3.99228 18.1606 4.4644 17.8125 4.8125L9.5 13.125L6 14L6.875 10.5L15.1875 2.1875Z" stroke="#899ED3" stroke-width="1.5" stroke-linecap="round" stroke-linejoin="round"/>
</svg>
