<svg width="23" height="21" viewBox="0 0 23 21" fill="none" xmlns="http://www.w3.org/2000/svg">
<path d="M15.6668 19.875V3.20833C15.6668 2.6558 15.4473 2.12589 15.0566 1.73519C14.6659 1.34449 14.136 1.125 13.5835 1.125H9.41683C8.8643 1.125 8.33439 1.34449 7.94369 1.73519C7.55299 2.12589 7.3335 2.6558 7.3335 3.20833V19.875M3.16683 5.29167H19.8335C20.9841 5.29167 21.9168 6.22441 21.9168 7.375V17.7917C21.9168 18.9423 20.9841 19.875 19.8335 19.875H3.16683C2.01624 19.875 1.0835 18.9423 1.0835 17.7917V7.375C1.0835 6.22441 2.01624 5.29167 3.16683 5.29167Z" stroke="#0E0F0F" stroke-width="1.5" stroke-linecap="round" stroke-linejoin="round"/>
</svg>
