<svg width="19" height="19" viewBox="0 0 19 19" fill="none" xmlns="http://www.w3.org/2000/svg">
<path d="M17.376 0.75L15.626 2.5M15.626 2.5L18.251 5.125L15.1885 8.1875L12.5635 5.5625M15.626 2.5L12.5635 5.5625M8.96722 9.15875C9.41902 9.60453 9.77818 10.1353 10.024 10.7204C10.2698 11.3056 10.3975 11.9336 10.3996 12.5683C10.4017 13.203 10.2783 13.8318 10.0364 14.4186C9.79449 15.0054 9.4389 15.5386 8.9901 15.9874C8.5413 16.4362 8.00815 16.7918 7.42136 17.0337C6.83457 17.2756 6.20572 17.399 5.57103 17.3969C4.93633 17.3948 4.30832 17.2671 3.72316 17.0213C3.13801 16.7755 2.60726 16.4163 2.16147 15.9645C1.28484 15.0569 0.799764 13.8412 0.810729 12.5794C0.821694 11.3176 1.32782 10.1105 2.2201 9.21825C3.11237 8.32597 4.31941 7.81985 5.58123 7.80888C6.84305 7.79792 8.0587 8.28299 8.96635 9.15963L8.96722 9.15875ZM8.96722 9.15875L12.5635 5.5625" stroke="#0E0F0F" stroke-width="1.5" stroke-linecap="round" stroke-linejoin="round"/>
</svg>
