<svg width="17" height="18" viewBox="0 0 17 18" fill="none" xmlns="http://www.w3.org/2000/svg">
<path d="M16.0807 8.2875L9.18821 15.18C8.34382 16.0244 7.19859 16.4988 6.00446 16.4988C4.81032 16.4988 3.66509 16.0244 2.82071 15.18C1.97632 14.3356 1.50195 13.1904 1.50195 11.9962C1.50195 10.8021 1.97632 9.65688 2.82071 8.8125L9.71321 1.92C10.2761 1.35708 11.0396 1.04083 11.8357 1.04083C12.6318 1.04083 13.3953 1.35708 13.9582 1.92C14.5211 2.48292 14.8374 3.24641 14.8374 4.0425C14.8374 4.83859 14.5211 5.60208 13.9582 6.165L7.05821 13.0575C6.77674 13.339 6.395 13.4971 5.99696 13.4971C5.59891 13.4971 5.21717 13.339 4.93571 13.0575C4.65424 12.776 4.49612 12.3943 4.49612 11.9962C4.49612 11.5982 4.65424 11.2165 4.93571 10.935L11.3032 4.575" stroke="#5C6369" stroke-width="1.5" stroke-linecap="round" stroke-linejoin="round"/>
</svg>
